/* XPM */
static char *images1744185735[] = {
/* columns rows colors chars-per-pixel */
"64 64 4 1 ",
"  c #010101",
". c #020202",
"X c gray1",
"o c #040404",
/* pixels */
".o.ooo...o.o.o.o.o.o.o.o....oooo.o.o.o.o.o.o.o.o................",
"..ooo.o.o.o.o.o.o.o.o.o....o.oooo.o.o.o.o.o.o.o...............o.",
".o.ooo...o.o.o.o.o.o.o.o....oooo.o.o.o.o.o.o.o.o.............o.o",
"..ooo.o.o.o.o.o.o.o.o.o....o.oooo.o.o.o.o.o.o.o...............o.",
"..ooo.o..o.o.o.o.o.o.o.o...o.ooo.o.o.o.o.o.o.o.o.............o.o",
".o.ooo..o.o.o.o.o.o.o.o.....ooooo.o.o.o.o.o.o.o...............o.",
".o.ooo...o.o.o.o.o.o.o.o...o.ooo.o.o.o.o.o.o.o.o.............o.o",
"..ooo.o.o.o.o.o.o.o.o.o.....ooooo.o.o.o.o.o.o.o...............o.",
".o.o.o.o.o.o.o.o.o.o.o.o.o.o.o.o.o.o.o.ooo..oo.......o..........",
"o.o.o.o.o.o.o.o.o.o.o.o.o.o.o.o.o.o.o.o.o...ooo.......o.........",
".o.o.o.o.o.o.o.o.o.o.o.o.o.o.o.o.o.o.o.ooo..oo..................",
"o.o.o.o.o.o.o.o.o.o.o.o.o.o.o.o.o.o.o.o.o...ooo.................",
".o.o.o.o.o.o.o.o.o.o.o.o.o.o.o.o.o.o.o.oo...ooo.................",
"o.o.o.o.o.o.o.o.o.o.o.o.o.o.o.o.o.o.o.o.oo..oo..................",
".o.o.o.o.o.o.o.o.o.o.o.o.o.o.o.o.o.o.o.ooo..oo...o..............",
"o.o.o.o.o.o.o.o.o.o.o.o.o.o.o.o.o.o.o.o.o...ooo.o...............",
".o.o.o.o.o.o.o.o..ooooo....o.ooo.o.o.o.o.o.o.o.o................",
"o.o.o.o.o.o.o.o....ooooo....ooooo.o.o.o.o.o.o.o.................",
".o.o.o.o.o.o.o.o...oooo....o.ooo.o.o.o.o.o.o.o.o................",
"o.o.o.o.o.o.o.o.....oooo....ooooo.o.o.o.o.o.o.o.................",
".o.o.o.o.o.o.o.o...oooo....o.ooo.o.o.o.o.o.o.o.o................",
"o.o.o.o.o.o.o.o...oooooo....ooooo.o.o.o.o.o.o.o.................",
".o.o.o.o.o.o.o.o..ooooo....o.ooo.o.o.o.o.o.o.o.o................",
"o.o.o.o.o.o.o.o....ooooo....ooooo.o.o.o.o.o.o.o.................",
".o.o.o.o.o.o.o.o...o.o.o.o.o.o.o.o.o.o.o........................",
"o.o.o.o.o.o.o.o...o.o.o.o.o.o.o.o.o.o.o.........................",
".o.o.o.o.o.o.o.o.o.o.o.o.o.o.o.o.o.o.o.o........................",
"o.o.o.o.o.o.o.o.o.o.o.o.o.o.o.o.o.o.o.o.........................",
".o.o.o.o.o.o.o.o.o.o.o.o.o.o.o.o.o.o.o.o........................",
"o.o.o.o.o.o.o.o.o.o.o.o.o.o.o.o.o.o.o.o.........................",
".o.o.o.o.o.o.o.o.o.o.o.o.o.o.o.o.o.o.o.o........................",
"o.o.o.o.o.o.o.o.o.o.o.o.o.o.o.o.o.o.o.o.........................",
".o.o.o.o.o.o.o.o.o.o.o.o.o.o.o.o.o.o.o.o........................",
"o.o.o.o.o.o.o.o.o.o.o.o.o.o.o.o.o.o.o.o.........................",
".o.o.o.o.o.o.o.o.o.o.o.o.o.o.o.o.o.o.o.o........................",
"o.o.o.o.o.o.o.o.o.o.o.o.o.o.o.o.o.o.o.o.........................",
".o.o.o.o.o.o.o.o.o.o.o.o.o.o.o.o.o.o.o.o........................",
"o.o.o.o.o.o.o.o.o.o.o.o.o.o.o.o.o.o.o.o.........................",
".o.o.o.o.o.o.o.o.o.o.o.o.o.o.o.o.o.o.o.o........................",
"o.o.o.o.o.o.o.o.o.o.o.o.o.o.o.o.o.o.o.o.........................",
".o.o.o.o.o.oo.o..o.o.o.o.o.o.o.o.o.o.o.o.o.o.o.o................",
"o.o.o.o...oooo..o.o.o.o.o.o.o.o.o.o.o.o.o.o.o.o.................",
".o.o.o.o.o.ooo...o.o.o.o.o.o.o.o.o.o.o.o.o.o.o.o................",
"o.o.o.o...ooo.o.o.o.o.o.o.o.o.o.o.o.o.o.o.o.o.o.................",
".o.o.o.o.o.ooo...o.o.o.o.o.o.o.o.o.o.o.o.o.o.o.o................",
"o.o.o.o...ooo.o.o.o.o.o.o.o.o.o.o.o.o.o.o.o.o.o.................",
".o.o.o.o.o.oo.o..o.o.o.o.o.o.o.o.o.o.o.o.o.o.o.o................",
"o.o.o.o...oooo..o.o.o.o.o.o.o.o.o.o.o.o.o.o.o.o.................",
"....oooo.o.o.o.o.o.o.o.o.o.o.o.o.o.o.o.o.o.o.o.o.........o.o.o.o",
"...o.oooo.o.o.o.o.o.o.o.o.o.o.o.o.o.o.o.o.o.o.o.........o.o.o.o.",
"...o.ooo.o.o.o.o.o.o.o.o.o.o.o.o.o.o.o.o.o.o.o.o.........o.o.o.o",
"o.o.o.o.o.o.o.o.o.o.o.o.o.o.o.o.o.o.o.o.o.o.o.o.........o.o.o.o.",
".o.o.o.o.o.o.o.o.o.o.o.o.o.o.o.o.o.o.o.o.o.o.o.o.........o.o.o.o",
"ooo.o...o.o.o.o.o.o.o.o.o.o.o.o.o.o.o.o.o.o.o.o.........o.o.o.o.",
"oooo.....o.o.o.o.o.o.o.o.o.o.o.o.o.o.o.o.o.o.o.o.........o.o.o.o",
"ooo.o...o.o.o.o.o.o.o.o.o.o.o.o.o.o.o.o.o.o.o.o.........o.o.o.o.",
".o.o.o.o.o.o.o.o.o.o.o.o.o.o.o.o.o.o.o.ooo..ooo.................",
"o.o.o.o.o.o.o.o.o.o.o.o.o.o.o.o.o.o.o.o.o...oo................o.",
".o.o.o.o.o.o.o.o.o.o.o.o.o.o.o.o.o.o.o.ooo..oo...............o.o",
"o.o.o.o.o.o.o.o.o.o.o.o.o.o.o.o.o.o.o.o.o...ooo...............o.",
".o.o.o.o.o.o.o.o.o.o.o.o.o.o.o.o.o.o.o.ooo..oo...............o.o",
"o.o.o.o.o.o.o.o.o.o.o.o.o.o.o.o.o.o.o.o.o...oo................o.",
".o.o.o.o.o.o.o.o.o.o.o.o.o.o.o.o.o.o.o.ooo..oo...............o.o",
"o.o.o.o.o.o.o.o.o.o.o.o.o.o.o.o.o.o.o.o.o...oo................o."
};
