/* XPM */
static char *_84101201_636064629170515_6499401744185735[] = {
/* columns rows colors chars-per-pixel */
"64 64 226 2 ",
"   c #050203",
".  c #0A0506",
"X  c #0D0906",
"o  c #0C0609",
"O  c #050A0B",
"+  c #0D090B",
"@  c #060906",
"#  c #140403",
"$  c #1B0202",
"%  c #120A06",
"&  c #13060B",
"*  c #120B0C",
"=  c #1B0B0C",
"-  c #1B0709",
";  c #07120D",
":  c #17120E",
">  c #0E0D11",
",  c #130E11",
"<  c #1C0D12",
"1  c #160610",
"2  c #0B1313",
"3  c #081512",
"4  c #151113",
"5  c #1A1315",
"6  c #161419",
"7  c #1A1619",
"8  c #1D191B",
"9  c #1A1917",
"0  c #240101",
"q  c #2B0203",
"w  c #2B0E0B",
"e  c #240A0A",
"r  c #330102",
"t  c #39080B",
"y  c #240D14",
"u  c #2B0C13",
"i  c #3C0D18",
"p  c #360B14",
"a  c #231313",
"s  c #2B1314",
"d  c #221C1E",
"f  c #2B1B1C",
"g  c #291519",
"h  c #3C1312",
"j  c #361619",
"k  c #2E120E",
"l  c #38221C",
"z  c #1E1C22",
"x  c #241E21",
"c  c #2E1F24",
"v  c #381C22",
"b  c #262124",
"n  c #2A2424",
"m  c #2B2629",
"M  c #2C292D",
"N  c #262629",
"B  c #332628",
"V  c #2D2C31",
"C  c #322F32",
"Z  c #333136",
"A  c #353439",
"S  c #39373C",
"D  c #3A393E",
"F  c #37383B",
"G  c #46040B",
"H  c #55080C",
"J  c #430C14",
"K  c #440D1A",
"L  c #480C17",
"P  c #560D16",
"I  c #431315",
"U  c #44141C",
"Y  c #4C131A",
"T  c #431B1B",
"R  c #4A1817",
"E  c #52151C",
"W  c #57171C",
"Q  c #63191A",
"!  c #6A0013",
"~  c #53221D",
"^  c #5A231C",
"/  c #4B231E",
"(  c #692A1A",
")  c #461C23",
"_  c #581A23",
"`  c #671B25",
"'  c #700F23",
"]  c #492628",
"[  c #572728",
"{  c #562B36",
"}  c #59383A",
"|  c #4F322E",
" . c #672728",
".. c #752928",
"X. c #6A3527",
"o. c #773729",
"O. c #682B34",
"+. c #742E36",
"@. c #6A3936",
"#. c #763638",
"$. c #744539",
"%. c #5E413D",
"&. c #3C3D41",
"*. c #463E43",
"=. c #593741",
"-. c #683D44",
";. c #7D3445",
":. c #3E4245",
">. c #3F4B49",
",. c #414246",
"<. c #444549",
"1. c #46494C",
"2. c #494B4E",
"3. c #4A454A",
"4. c #56464B",
"5. c #4C4D51",
"6. c #504F54",
"7. c #4D5254",
"8. c #525256",
"9. c #545559",
"0. c #565A5D",
"q. c #595A5E",
"w. c #58575C",
"e. c #674648",
"r. c #664953",
"t. c #63565C",
"y. c #775758",
"u. c #764C4E",
"i. c #5C5D62",
"p. c #655D63",
"a. c #765B62",
"s. c #5E6265",
"d. c #5B6465",
"f. c #616166",
"g. c #646569",
"h. c #69676C",
"j. c #656A6C",
"k. c #6A6A6E",
"l. c #73656B",
"z. c #6C6D72",
"x. c #746D73",
"c. c #6D7274",
"v. c #6F737B",
"b. c #717276",
"n. c #747579",
"m. c #767A7D",
"M. c #79797E",
"N. c #7B757A",
"B. c #853A29",
"V. c #853737",
"C. c #8A313B",
"Z. c #80132A",
"A. c #884737",
"S. c #994738",
"D. c #944D37",
"F. c #8A3845",
"G. c #884845",
"H. c #954B47",
"J. c #9A5947",
"K. c #9A5755",
"L. c #8B4F51",
"P. c #A65647",
"I. c #A55955",
"U. c #A24D42",
"Y. c #A96559",
"T. c #B56B5A",
"R. c #A66954",
"E. c #865A62",
"W. c #88757B",
"Q. c #92777A",
"!. c #87686E",
"~. c #B66865",
"^. c #BA7665",
"/. c #BE6C72",
"(. c #BA5669",
"). c #C37772",
"_. c #CA706F",
"`. c #C7755F",
"'. c #7A817E",
"]. c #CB8C76",
"[. c #7C7D81",
"{. c #757881",
"}. c #817F84",
"|. c #977E83",
" X c #A07881",
".X c #7D8183",
"XX c #828286",
"oX c #858589",
"OX c #8B8A8D",
"+X c #888788",
"@X c #98888A",
"#X c #89918E",
"$X c #8E8D92",
"%X c #868E90",
"&X c #968D93",
"*X c #8E9292",
"=X c #8E9A96",
"-X c #929294",
";X c #959599",
":X c #9A9B9C",
">X c #989998",
",X c #91938E",
"<X c #A58C93",
"1X c #A69699",
"2X c #B3989C",
"3X c #A58B8C",
"4X c #99A09D",
"5X c #A2A09E",
"6X c #9D9CA1",
"7X c #A89CA3",
"8X c #B39FA1",
"9X c #9BA6A3",
"0X c #A3A3A4",
"qX c #AAA4AB",
"wX c #ACABAC",
"eX c #A8A7A7",
"rX c #B6AAAA",
"tX c #B4B1AE",
"yX c #B8B4B6",
"uX c #ADAFB1",
"iX c #D89584",
"pX c #C6B8B9",
"aX c #D1B8BB",
"sX c #E5A08E",
"dX c #CBBCC2",
"fX c #D1C5C8",
/* pixels */
"oX-X-X$X6XqXqX$X;X6XqXyXyXyXyXdXpXpXtXpX+X+XtX=X9XuX9X9XqXqXqXqX7XqX<X}.}.oX.X.X.X#X#X#XOX+X+XW.XX.Xm.n.c.z.j.z.z.j.j.d.0.9.7.7.",
"oX$XoX[.OX6X6X;X$X6XqXuXyXyXyXyXpXpXrXtX>X,XtX4X9X=X4X9XqXqX7X|.|.7XqX7X7X7X*X=X#X#X#X#X,X,X+X+XXX.X.X'.m.c.c.z.z.j.d.i.0.8.7.7.",
"x.M.M.n.}.6X6XOX$X6X6XuXuXuXuXyXtXtX5XtX8X4X5X5XeXwXpXfXdXqX|. Xr.|.qXqXrX>X-X:X-X,X#X-X=X-XOX+XoX.X.X.Xm.m.c.z.j.j.s.i.9.7.7.2.",
"M.oXoXoXOX6X;XoX;X6X6X6XqXuXuXuX8XtX1XeXtX,XeXtXtXtXfXpX<Xa.=.r.{ r. X|.8X8X&X>X,X-X,X-X,XOX+X+X[.[..X.Xm.c.z.j.d.d.i.0.8.7.2.2.",
"OX$X$XoXOX-X$X}.$X;X;X6X9XqX9XqX5XwX>X5XtX5XrXpXfX8X|.!.-.) ) -.{ ] ) e.|.2X1X>X,X3X,XOX#X#X+XoXm.m.m.m.v.c.j.f.d.d.0.0.7.5.1.5.",
"g.g.p.p.g.{.oXOX$X%X;X6X6X6X6X6X4X4X4XtXtXrXaXpX2X!.} _ { { O.O.O.[ I j @.y.Q.rX1X>X,X,XOXOXoXoXm.m.m.m.c.j.j.d.d.d.0.7.7.7.2.>.",
"6.6.6.6.i.x.[.oX}.$X.X6X;X6X6X;X4X4X4XrXtXyXaX|.%.] I ) O.;.+.O.+.#. .R I T @.Q.3X3X@X@XOX+X.X.X[.m.m.c.c.z.j.j.d.i.0.0.7.5.7.1.",
"b.{.}.}.}.OXoX}.$X}.;X.X;X6X6X;X4X4X>XwX1XpX8Xu./ X.O.#.C.F.K.I.H.u. .[  .[ j ] 3X@X+X+XXXXX[.{.m.m.c.c.j.j.d.g.d.i.0.9.7.5.5.5.",
"b.N.N.{.{.}.}.}.}.;X;X;X;X;X;X;X9X=X9XuXqXaXa.] O.O.;.F.K.(././.~.Y.K.F.+.[ ] T E.@X@XW.OX}.n.[.[.v.z.k.j.d.d.0.d.i.9.7.7.1.1.1.",
"x.b.N.{.}.}.}.}.}.}.}.;X;X;X;X;X4X=X9XeX2X2X-._ ` O.V.H.K.~.~.~./.Y.I.L.A.@.[ R e.Q.|.W.+X}.M.[.{.v.z.k.j.d.i.i.i.i.9.7.1.>.>.>.",
"z.z.x.{.{.}.}.}.}.}.;X;X$X$X;X;X=X6X;X7X1XQ._ [ #.+.C.F.I.).iXiX).^.Y.K.G.$.~ h / a.|.W.}.}.{.{.'.v.z.j.d.d.d.0.0.0.7.7.1.<.:.:.",
"g.h.h.x.x.N.}.}.}.$X}.;X}.$X$X$X%X;X-X7X1Xu.i ` .. ...F.K.~.].].^.^.T.I.A.o.^ T t e.Q.}.M.[.{.{.m.c.k.j.h.d.0.0.0.8.8.7.2.<.<.:.",
"p.p.h.h.h.{.{.}.}.}.}.;X$X;X$X;X%X;X$X1X2X-.L  .Q ` C.H.R.T.^.^.^.^.R.R.D.$.( ~ t %.!.W.b.M.{.{.v.c.j.d.d.i.0.0.0.9.7.7.5.1.>.&.",
"i.i.i.g.g.{.x.{.}.}.}.}.}.}.}.[.OX&X|.&X<XO.E ` ` ..B.H.R.T.].sX].].`.J.A.X.( ~ R | y.W.x.z.{.{.z.j.s.d.i.i.0.9.7.9.9.7.5.>.<.:.",
"i.i.i.p.g.h.x.{.{.{.[.}.}.[.}.}.}.}.@X<X X_ ` _ Q Q Q ..o.A.^.iXsX].R.D.o.X.^ R / j r.W.x.z.{.z.g.s.i.i.0.0.i.7.7.7.7.7.2.<.:.:.",
"i.i.i.i.p.h.h.{.{.{.{.[.[.[.[.[.[.}.&X<X!.K ` P P Q B.A.A.o.$.D.^.J.o.( ( X.( / / t } W.W.h.k.g.s.d.0.9.0.0.0.0.7.7.7.2.1.>.:.&.",
"6.w.p.p.i.p.p.z.h.h.h.{.z.{.N.{.z.oX|.|.E.[ _ P Q ( ..( o.J.D.D.T.B.B.D.( ( $.h _ ) { r.}.h.i.i.d.i.0.8.7.7.7.7.7.5.5.<.>.:.:.:.",
"6.8.w.i.i.i.p.h.g.h.h.h.h.z.v.v..XM.N.Q.L./ W Q H Q o.o.B.U.S.S.].D.J.J.( ( $.^ K K i =.a.h.0.i.i.i.0.8.7.7.7.5.7.1.1.1.:.&.&.&.",
"6.w.8.w.i.i.i.g.g.p.g.h.h.x.{.x.'.c.h.Q.L.Y W ..H  .H.H.D.Y.U.P.P.B.D.T.J.$.A.^ K Y v { a.l.p.i.i.0.9.7.5.5.2.2.>.<.<.:.&.&.&.&.",
"8.8.8.8.6.8.i.i.f.i.p.g.h.z.h.k.j.c.l.Q.u.L P Q H ( I.T.T.T.P.P.].B.$.R.R.J.$.R L ) K ) -.l.p.6.0.0.7.7.5.2.2.1.>.:.>.&.&.&.A &.",
"6.8.8.8.6.6.6.w.i.i.i.p.g.h.k.z.d.m.x.a.-.J P P H Q H.~._._.U.U.].U.B.D.J.L.$.R J R I i =.p.w.6.9.8.7.5.5.5.1.1.:.:.:.:.&.A Z Z ",
"&.*.6.8.6.5.5.6.w.w.i.i.s.g.g.j.j.n.t.=.v G P P P P C.I.~.`.C.S.T.S.D.P.G.X.~ I G W U i { r.t.p.9.7.5.2.3.<.<.*.:.:.:.:.&.&.&.V ",
"N &.2.8.2.3.5.8.9.9.8.w.w.i.s.i.d.7.m v i L _ P Q H ..G.I.I.C.U.o.X.D.D.$.X.I G E _ K i ) =.4.t.5.5.2.3.&.&.&.&.&.&.&.&.&.&.V V ",
"> V *.2.3.*.6.w.*.6.6.8.9.w.i.i.>.N   u ) K E P W G Q ..V.V.B.H.P.A.$.( ( ^ I r E ) G t p j B 3.2.3.*.&.&.&.&.&.&.&.Z &.&.V V N ",
"6 z z &.2.2.*.6.*.6.6.6.8.w.8.*.3 3 9 f K K K P K L _ +. .Q ..H.J.A.^ ~ ^ ^ h r W Y J p i j y & z &.*.&.&.&.&.&.V Z &.&.V V z > ",
"z > 6 &.*.*.2.5.&.8.8.*.&.V z 2 9 3 4 g v K E _ P P _ +.#.+.#.H.K.u.$.X.%./ h R R L G t p p w & 6 z V &.V Z &.Z V &.Z &.N z 6 2 ",
"z 6 > V &.&.&.&.&.&.&.&.z 2 > O 2 ; 4 a i K K P G t J _ { #.#.@.G.$.[ | | 0 $ T J J t r e p a = O > > z b &.Z M V Z Z z 6 > > 6 ",
"z > > z &.&.&.&.*.&.V 6 > > 6 z 2 > , y i K K K i K I i [ $.u.@.u.%.| | / w 0 T i K t r q p s a 1 > > 1 6 x V M Z V z z > > > 6 ",
"z 6 > z V &.&.&.2.&.6 O O > > 6 2 3 1 < i i i K K ) j t j | @.[ | ] / k l s k h t K p q q k j a 1 > > > 1 6 N Z Z x 6 1 6 6 6 1 ",
"z 6 > 6 V &.&.&.&.z > > 6 6 > > 2 O 1 y p p i i K ) j $ $ 0 w w $ w % % a k k k q I I r 0 k s a 1 O O 1 O o x &.M z > 1 6 z z 6 ",
"6 z 6 z z V &.Z 6 6 > 6 6 6 6 > 2 > > y u i p i ] ) v u e e e e e e e a l l f l 0 h I q 0 w s : & O 1 > O O 6 Z x 6 1 6 < z 6 1 ",
"> 6 6 6 z &.Z V N 6 > > O O O > 2 > , < u u u p i u e - = % % # e $ % f l = % / 0 h j 0 $ e a = 1 1 6 6 1 o 6 c 6 6 7 6 6 6 6 1 ",
"5 5 5 4 8 M C C 9 5 4 + + > > > O + * < - $ 0 e v e # = : : 9 l w I h h / l w k 0 g j = # 1 1 & , , , + + + 6 9 9 4 * & , < 5 y ",
"8 8 5 , 5 n B C 7 5 * + * : * * @ X % = - < u ) v w $ = : : : f I R I R [ / h j $ a g , o , 6 o , & , + + O 6 9 > 4 5 5 5 < < < ",
"n d 4 * 5 n M m 5 5 + * * * = + * @ + * - e j B ) u - = = X % a h h h | %.] w w $ y a , o 6 6 , , + + + @ + 2 9 O 4 5 5 < < y y ",
"M b 5 * 5 n n n 5 , * + = > > + 4 % % & # # y j v g e = % % ; a h h / $.y.] $ $ # = 5 * o , 6 , , & + o X X > 4 4 4 4 5 < < g f ",
"C n a , 4 d n x , , + + * , * + + % % % # # - s v s = - * : * : } } %.y.u.l $ = # % * & O 4 2 4 , + + + + O > 4 > , , < 7 < y < ",
"C n d 4 5 8 x d + * + * , * * + + ; % : = # e g v y = = % * : : %.%.%.%.| a # a & & & + + + 2 > , + + + * 4 O + . + 5 7 g < < < ",
"M B n 5 , 5 d b + & & + * , * + > X X * # - g j f g < - % : : % | | l s a $ . = % + + O 2 + > + , , + 4 5 4 ; +   2 5 , 1 x ] 4.",
"n M m 8 4 5 8 b * + + , 4 * * + : X X # . # 5 B f g y % % % ; X % % $ $ : = . % % X + + , O O > & + , 5 9 6 + @ + 4 < o & c a.&X",
"x n n 5 = 4 5 5 & + , * , + , + X : : % # : f B = = % = % * : : : = = : % % = = > * + @   O O > * 8 m m 8 > ; + + 4 + . & c =.4.",
"b n n 8 4 5 5 4 , + + * & + + & X * % X X 5 f B % = % % * * + % % : = % * & 4 4 X @     + * 9 8 m n n 8 > + + 4 + + , + * B 4.p.",
"d b d 5 , , 4 * * * & + + , + % * ; % . : d n l : % * % * * * : X % : % & , < 7 * : 5 8 d b N n M x 5 * X @ O > O + + * 1 g =.a.",
"8 8 5 5 , , + + + + + & + * + + * % . X : n B n * * % % % X % * + * : * , , < 6 8 x M Z C m d 5 : * + X > + X . 4 + + = = < c *.",
"8 8 7 7 5 4 % & + & + + + + + % * % X X 9 B B n * % % % X % * * * , > , 1 > 4 6 b n n c d < o . .   . + 4 4 ; @ 4 o . < , & - y ",
"x d a d d 7 , , + + + + + & o % = : X % : n n d + % ; % X + % * * , , , > , 4 < b g < & . . # o < % o o + > + ; > o . * , < - & ",
"d 7 7 d n 5 , + & + o + + + + . % % X @ : 9 9 9 X + X X X X & + + > , , 1 > 6 < 7 < & . . # & 1 5 , + + + + > O @ + , * 1 y < 1 ",
"7 5 4 d d 4 + + o + o & o o o X X * X @ X : 9 : + X + + % X % % o + > , , 4 7 x . . & & & & # . . + * , > + + o   5 7 & o 1 < - ",
"d 8 7 4 5 = 4 , + + o & + o & + + & + + + * 4 9 % % > & + & + + + + @ X 5 b 9   . + + & + + o o + + O + O + * + * o + , 5 1 1 1 ",
"a 9 5 , , 4 , * + o + + + + o + + & * + + * 4 7 o o & + , + + + + + o + 5 8 4   + + + + + + o @ + @ ; + + + * + & o 1 1 4 1 O 1 ",
"5 4 = > 4 4 4 , + o & o & + + + + + * + + * 5 5 o + + * + * o o + + + 5 9 , X   X o + + + + + o + + * + + + > + + O + 2 > O O O ",
"4 , * * * 4 , * o % + + + o % o + + * + & + , 5 + + , + & > & % + . > 8 7 .   +   + + + + + o @ & & % + * * O + > O O 2 3 3 3 3 ",
"* & + * 4 4 4 * + o + & o o & + o + & * + + * 4 o & + , + & o + + + 4 8 5     + + + + + + + + . & & & * + + O + ; ; O ; ; 3 3 ; ",
", , * , 4 4 4 * + + + o + + + + o o * + & + * , + + * + * + + + + + 5 9 *     + + + + + + + X o * & & & + + + + X > O @ O O ; ; ",
"4 4 + , 5 5 & + & + + + + o o & o + , * + + + , + % & & + & + + X > 5 + +   . + . O + + + + + @ & + * + * + + + * : < & # 5 : = ",
"4 = 4 5 5 4 * & + o + & o + + + o + & * + + + & o + > + , + + + X 6 5 X   + + . . X + + + + + X + + + + + + * % < a u e e k p t ",
", , , * , = * , + o o + + o + + & + + + + * + * o o o + & % + + + * : + X + + .   > 5 > 5 *   4 @ O O O + % % - # ] E.K q O.;.' ",
"* = 4 4 , , 4 4 o % + + & + & o o o o & + & , + . o o o + o o + + 4 > + . + + @ > +     X > = 9 @ @ O O + + & & $ 0 -.F.O.F.F.' ",
"4 , , , 4 * , * o + + + + & + + o + + + + + & * o o o o o o o . + > : + . + + . + +   5 S F d @ O O O O O o % $ $ t O.K.F.(.(.Z.",
"4 * * 4 , , 4 * & + o & + + o + o % + + + , + , o o o . . o . o + > 4 + + + + .   * 5 A q.4.d @ O O O O + + % $ $ 0 t ` ! F.(.! ",
", , = 4 < = 4 , + + + o o % o + o & + + + + * + & o . . . o o + + : 4 X   + +   + 4 + 9 A Z 7 > O O O O X X X . s # 0 ^ G r ' H ",
"* 4 > > , , * 4 + & o + + o & o o + + & & , + & + o o . . + & * + > > + + + + + + + . . 9 9 + + > 1 O 1 O X X X : e j | ) P ` H ",
"4 * : , , , , , o + & + + + + + + o + + + * + , % o o . . * 4 4 + > 4 +   + +     + + * d 5   . 1 1 1 + @ @ @ @   % l w R %./ r ",
", , 4 = , , , , o % + o + & o + + + + & + + & , o o o o + * 5 5 + : 4 + + + + X + , @ X 5 5 + + 1 1 1 o @ @ @ @ : X % % / } q I "
};
