/* XPM */
static char *e28ba4f95b274df10917e854b5c5fad21744185734[] = {
/* columns rows colors chars-per-pixel */
"64 64 59 1 ",
"  c #2F043C",
". c #31033E",
"X c #2E0244",
"o c #2F0845",
"O c #2D014B",
"+ c #330145",
"@ c #32014C",
"# c #39004E",
"$ c #2E0153",
"% c #2E015A",
"& c #330153",
"* c #3A0156",
"= c #34015B",
"- c #39015C",
"; c #36095E",
": c #2F0060",
"> c #350163",
", c #3A0164",
"< c #36016B",
"1 c #3B016B",
"2 c #3C096D",
"3 c #370171",
"4 c #3C0173",
"5 c #3D0872",
"6 c #3E017A",
"7 c #40025D",
"8 c #410265",
"9 c #420A65",
"0 c #42026C",
"q c #42086A",
"w c #430274",
"e c #490375",
"r c #430874",
"t c #4A0974",
"y c #44027B",
"u c #4A037D",
"i c #44097B",
"p c #4B097D",
"a c #500876",
"s c #51057D",
"d c #550C7F",
"f c #3F0282",
"g c #460281",
"h c #4C0383",
"j c #4C0983",
"k c #4D0389",
"l c #4E0A89",
"z c #520485",
"x c #590785",
"c c #530A84",
"v c #590B85",
"b c #54058A",
"n c #5B078B",
"m c #530A8A",
"M c #5A0B8B",
"N c #4E0491",
"B c #560692",
"V c #590493",
"C c #5E0A90",
/* pixels */
"huygllkhugyyww446333<>%>==>>,111<<1>%$$$$%:<36ff6541-=@@++++#+#+",
"uyygkllhuuuyy4w4343<>>>>=>;>>,<1>1,==$$$$$%<46ff664,,=&@@++++++#",
"y66uhlllgyy6www11<1>>====;;><111<1,,=$O$$$=><6i65511-=&@@+#+@@##",
"uyyyglhggyyywww0<>>,>%%=>>>>1131111,=$&$&$=>156432,>-&&@@@@+#@#@",
"yy6ggyggy66yyww1-========,>11<33400,-=&&&&=-14w41>>=%$&O@o@@&&&&",
"yyuyy6yffyyw4ww0=&&&&&&==,>11334ww01>==&*==,10ww>>==&@O@@@&&&&==",
"rrywy6yy6ywwewrq&@@&&&==,,113334yyw41>=-===,00w4>==%$&O@&&%&===:",
"1wwr6y6y664wwqq9@+@@&&==,1<33334yuu41,>>,>>11ww4>====&&@&@&&%%::",
">,>144346w42,==&XX@@**-,riry5435gllg644r1114igjp1,,-&&@@@OO&%>>;",
"-=>,11436r02,=*&@o#&*,,,epir5434gklg63341336ijhj019,-&&&&O@$==:%",
"=&==,1,<42q,-**@@O@&=-,1pppe43<4llljy4553344gggg400,-&@@&@@$&;;%",
"*&&=>,2<112-&@@@O$&=,0wwuhui2<><5ij6533511345gguyw00,=*#@@@&@$&$",
"@@@&=>>>>>=&&X+X&==,epjhuhew1>>=2<,,>>:>>>><44rwjhje0777#@@@@&@@",
"+@O&=;>>%==$@X+X&=>1ijmbhuyw>%%=&%=&%%==%%::1314zbzpe877#@++@+@@",
"++O@;=>=%=&&OX +&::1yjlbhhuw2&%&&*&;&&$$%%%=>121kkbue877#+++++++",
"@+O@&&&=$&&@+++@,<<4jmkhhue0,&@@&@@#&&&$&$&=---,jmbje0877*#+@+X ",
"$@&O@OOOXXO@@&*8ehhggyuy1,=&@+  +O@@&=*=&&&@@O+$114wuuup088*@@oo",
"&&&&OOOoO@$&*--0ullhgyyw,-&@++  XXO@******@@@+Xo;114ehhhww0,*@oo",
"=&&&$OOOO&&&==,1hkhheww0==*@+X.XOOO&*---=*&&@++O;>14yphhww1,&$OO",
">>==&$$$O$=-,,01ughyw1q,*&&@@@o+@O&&=->-,==&&@@O;;=2weeueew0,=&&",
"111,=====->,ttppuuew0,--@@@#&@@$&%&=,,,,,,-=&&$O&&=-1qwecczpw019",
"w4411,,==>,1ipjjyyw0,**#@@@@@&&&====>1111,,-=&&$$O&=,00wvmvcuwww",
"ww4411>,1>>4ehkhw40,*##+++@@&%=>>>><1141211>>=%&@O@&-880cczhuyw4",
"y6w3<<>>1114hmkkw098-##+++@&&=>>>><<1443r411>>=&@o@&-880vMbzhgyg",
"ggi641<<14wyygkh<==&@@++++@&;9224r4r44445ji551,,OX@&&*-80eeuughg",
"gggr3<1>144ruhgg>==&@@++++@*,2444wy646y6jppr411,&X@@&=*-0wweuggg",
"gii51<<:12wryuhu-=&&&@@+@&&*-2r4yyyyy46wjjhuyw01&O@@&&==800wyugu",
"6y54<>::111446uw=&@&@@@@*&&,,214uuhuu6yyyuyeeywe=&&&&&&&,,001ww4",
"1442=%%%=>>11444=@&&&@&&&&==,>,1cbzzuyy4yweuussa,--&&&&&&=;>,111",
",<>>%%$$===><11,&@@&$$=%==->=>-1MCnbhuyywwyuzxxc0,,-=&&&&&&&==>=",
">>>=%O$$%&=>>,1,&@@&;==>>>,>>==,MMnxhuyyewwszxnv02,;=&$O@&@&&===",
"<1>>%%$$$;==>,1>&&&&&==>>>1>==-,vvvzueewyweuxnMv0,,-=$OO@@&&=-==",
"4311>%%%=%%=>>1=$OO$$%==:==&&&&&-,-,,,11euhhhkku,==&$O@O@&*-100w",
"131<>=%%%%%=>>,=$O&O$%%%=%%&$&@&&*--,,,1puhhhkkh,==&$OOX@&&,0wee",
"331<>====%%=>11,$&$$&$&$$&&%&&O&&&===-,,iughkkkh<>=%$$O$*==,1yuu",
"444<<::=>=>,1ww1;$$&&$$@$&@$@&&&$;&;=>,1wyuuhhkh3<<>>%$%==,1wggg",
"y565<>>>2>,1weyw==&&@@OX@+@@@&&&$$$;==>,1wyygggg633<::%%>>14uglk",
"ppj5<>:>220wyhhu>==$@@+++o++@&&$$O%$=>><144yyyyf6663<<>>2,,wyhlk",
"5j551>>>,11wezzu1>=&#++..+o@@$=$$$$%%=>>114y6uyg6633<>:==,,4ijlk",
"fii5<>,>01wyuzzh1,>-##....++@&&&$$%%=>>>11466ygi6633>:=%;=,1wihh",
"53<<>:>>,>1wezzzeit9*@++.+++#&&=$%%%%:>:134yjjljy512>=&$&$==,111",
"3<1<>===,>>0exczhup0-*#++++#@&&=%;;%%::><<1yhjjjr00,=&&$@&&=,,11",
"<<<>>=%===-,epcjhjpw8&*#@@@@&&&=;:%::>><<14yhjhjr19,-@@@&@&&,,01",
"<1,>:===&==,0eeuuhhi088-*&*&*&*=:;::>><1346uhhhh087;*@@@@&&=,111",
"1>>,=&&&$&&=-,01hhguuwwt,=-==&&=:>>><<13uihjhhhg,--**@@+*&==,114",
">,-===$&OO$&&==,hkhhkhjp11,,-*&&;2>1<114jmmmkhhu,-*&&@OO&&=,144w",
",>,=;&;@OOO&&&&,uhhkkkhh34<,==&=:<<<4344jccmkhhu,--&&&$@;;>>4666",
",,>,*==&O$OOO&&=iuhhhkkly441,-&=<<144wyyjjjhuyuw,=&=&&&=-->34666",
"434wippt,-&&&OOO;=,0pMnbkkkg63111w3ykBbbusae,>2>OXO$*,01ssjuyy66",
"666yjjcp11,=$OOoO&&,ezzbbkkh6331114ukVVbzsae,==$OOO&-00wxmbju666",
"6436hlzp11,&$$OO@@&8tdMbkkhg6332,14ykBnbssa9-==;OO$=-,01zzzjuyy5",
"3436hhzzw01,%$$O@@*-qtpzhhhy533<1,3yhbbzs098=&$$$$&=0wwyzkzhy664",
"3334gjzuccse<,=&@o@&,,10yugi433<214wjhhe88-*&&&;,-,0acvxhkgu6443",
"<<<5ghzzcMvp4,>*@oO@&*,1eyiy53322144yuiw,-*#&@&$,10edMMMuugy4333",
"<<<4ijzhbMxuw1,=@o@@*&-,wrr545<22113yie0-@@@@&O=004ycMMMuuuy333<",
"<:<3yjzhbnnze10,X+o@@&==q5r5332<2<11rrtq-*#@@@&=ewwuxMMcueuw433<",
":>134wyubbbzzhut@@o@&&&=><<<3:<::>><<<>=*&@@**=-jMnbsuuew111<<<<",
":><<13wybbbbzhje&@@@@&&==::::<<<:%:<>:>=&@+@&*,,mMbzuee00,1,><<>",
";:<>144wnbbzhjuu=&&&&$$$==:<3:<<>>::>>==@@@&;-,3mMMjuee0,,>,>>::",
":;>,1wyubbkkhhye==&&&&==>>:<3331<:><>>==*&@&,qwwllzje000-*===>:>",
";%%:2wuuhhguyy64,,,>-=->,,221343<,><>>,==**,0iggguy41-=&&&&&%===",
"%%::rpjugyyy644341,12>,=,,2144441,11<>,-*=*0eykl6641==&&&&&&=%=%",
"%%:22uyuyyy66331411>,,>-,22144441>1>1>>----0ihNNyww1,=&&@@$&$==%",
"%%%:4iuyyyy6643334311>,=,1,144w31,<,>>,=*=,0yhNN642,=&@@@O@O&&%="
};
