/* XPM */
static char *Iron_Bars1744185735[] = {
/* columns rows colors chars-per-pixel */
"64 64 94 2 ",
"   c #6A7371",
".  c #6B7472",
"X  c #6C7573",
"o  c #6D7674",
"O  c #6E7775",
"+  c #6F7876",
"@  c #707877",
"#  c #717977",
"$  c #717978",
"%  c #717A78",
"&  c #727B79",
"*  c #737B7A",
"=  c #737C7A",
"-  c #747D7B",
";  c #747E7C",
":  c #757E7C",
">  c #767E7C",
",  c #767F7D",
"<  c #777F7D",
"1  c #777F7E",
"2  c #77807E",
"3  c #78807F",
"4  c #78817F",
"5  c #798280",
"6  c #7C8583",
"7  c #7D8684",
"8  c #7E8785",
"9  c #7F8785",
"0  c #7F8886",
"q  c #808987",
"w  c #818A88",
"e  c #828A88",
"r  c #828A89",
"t  c #828B89",
"y  c #838C8A",
"u  c #848C8A",
"i  c #848D8B",
"p  c #858D8B",
"a  c #858D8C",
"s  c #858E8C",
"d  c #868E8C",
"f  c #868F8D",
"g  c #878F8E",
"h  c #87908E",
"j  c #88908E",
"k  c #88908F",
"l  c #89908F",
"z  c #88918F",
"x  c #89918F",
"c  c #899190",
"v  c #8A9190",
"b  c #899290",
"n  c #8A9291",
"m  c #8B9291",
"M  c #8A9391",
"N  c #8B9391",
"B  c #8B9392",
"V  c #8C9392",
"C  c #8B9492",
"Z  c #8C9493",
"A  c #8D9493",
"S  c #8E9594",
"D  c #8E9694",
"F  c #8F9695",
"G  c #909796",
"H  c #919897",
"J  c #929998",
"K  c #929A98",
"L  c #939A99",
"P  c #939B99",
"I  c #939B9A",
"U  c #949B9A",
"Y  c #949C9B",
"T  c #959C9B",
"R  c #959D9B",
"E  c #969D9C",
"W  c #969E9C",
"Q  c #969E9D",
"!  c #979E9D",
"~  c #979F9D",
"^  c #989F9E",
"/  c #98A09E",
"(  c #98A09F",
")  c #99A09F",
"_  c #9AA1A0",
"`  c #9BA2A1",
"'  c #9BA3A1",
"]  c #9CA3A2",
"[  c #9CA4A2",
"{  c #9CA4A3",
"}  c #9DA4A3",
"|  c #9FA6A5",
" . c #A0A7A6",
".. c None",
/* pixels */
"................ . . .{ m f f f ........................ . . .{ f q w w ........................[ ' ' E @ X X . ................",
"................ . . .{ x h f f ........................ . . .{ f w w w ........................' ' ' U @ X . . ................",
"................ . . .{ x f f f ........................ . .| { i w w w ........................' ' ' E @ X . . ................",
"................| |  .{ m f f f ........................| | | [ i w w w ........................_ ' ' U @ . . . ................",
"................] ] ] ( x h f f ........................E ^ E E i w w w 8 8 8 q z b b b b b M M _ _ _ E @ . . . ................",
"................' ] ] ( h h f f ........................E E E L u w w w 8 8 8 8 z b b b b z m Z _ ' ' E @ . . . ................",
"................' ' ' ( h f f f ........................E E E U w w w w 8 8 8 q h z z h b b z M _ _ ] E & . . . ................",
"................] _ ' ( h f f f ........................E E E U i w w q 6 8 6 8 s h h h h h f m ^ _ _ E & o X o ................",
"................_ ] ] ^ l f f f ........................E E E E i w w q > = = - > > > ; > > = 5 E _ ] E 8 8 5 8 ................",
"................] _ ] ^ l f f f ........................E E E L w w q q - & & & & & & & & & = > E ' ' ^ w 8 8 8 ................",
"................_ ] _ ^ x f f f ........................E E E Y i w w q - & & & & & & & & & & 2 E ] ' ^ w 8 8 8 ................",
"................^ ] ] ^ l i f i ........................E E E L w q w 8 - & & & & & & & & & & 2 E ' ] ^ w 8 8 8 ................",
"................E ^ E U w 8 q 8 ........................E E E L w 0 8 8 ........................E E ^ U w w w w ................",
"................E E E L w 8 8 8 ........................E E E L w 8 8 8 ........................E E E L f w w w ................",
"................E E E L w 8 8 8 ........................E E E L w 8 8 8 ........................E E E U w w w w ................",
"................E ^ ^ U w 8 8 8 ........................E E E L w q q 8 ........................E E E U i w w w ................",
"................_ _ _ E w 8 8 8 ........................E E E L f s s f ........................E E E U y w w w ................",
"................' _ ] ^ w 8 8 8 ........................E E E E z f f f ........................E E E U y w w w ................",
"................' ' ' ^ w 8 8 8 ........................E E E L z f f f ........................E E E U y w w w ................",
"................_ _ ' E w 8 8 8 ........................^ E ^ E f f f f ........................E E E L y q w w ................",
"................G G H S w 8 8 8 ........................_ _ ] E w 0 0 0 ........................E E E L w 8 8 8 ................",
"................G S S S 0 8 8 8 ........................_ ] _ E w 8 8 8 ........................E E E L w 8 8 8 ................",
"................S G S A w 8 8 8 ........................] _ _ _ w 8 8 8 ........................E E E L w 8 8 8 ................",
"................H S L S w 8 q 8 ........................_ ] _ _ w 8 8 8 ........................E ^ E E w 0 0 0 ................",
"................' _ _ E f a a w ........................_ ] _ E f 0 w w ........................_ _ ' ^ z w f w ................",
"................' ' ' _ f f f f ........................] _ ] _ s w w w ........................' _ ' ^ k s f s ................",
"................_ ' _ _ k f a f ........................_ ] ' E y w w w ........................_ ` ' ^ k f s s ................",
"................] ' ' E f a y a ........................] _ ' _ s 0 w w ........................_ _ ' E f s s f ................",
"................_ ] ' ^ w q q 8 8 8 8 8 m m z M m m M M ' ' ' E w 8 8 8 ........................H G H A w 8 0 0 ................",
"................] _ ] E q 8 8 8 8 8 8 8 z z M z b z M M E ' ' _ w 8 8 8 ........................A H G A w 8 8 8 ................",
"................_ ] _ _ w 8 8 8 8 8 8 8 z z m z b h b M ' ' ' E w 8 8 8 ........................S G S A 0 8 8 8 ................",
"................_ _ _ E w 8 8 8 8 6 6 8 s f h s h h h h E ' _ E 8 8 8 8 ........................G S G A w 8 8 8 ................",
"................S H H S 0 8 8 6 + + o + = > > > > ; ; 5 m L S S > > & * ........................S G S S w 8 8 8 ................",
"................G G S A 0 8 8 6 o       & & & & & & & ; M H S m > & & & ........................G S S S 0 8 8 8 ................",
"................S G S S w 8 8 8 o   o o % & & & & & & > S S G S ; & & & ........................S G S S w 8 8 8 ................",
"................S H H S w 8 8 8 +       % & & & & & & > S S S m > & & & ........................L S H S w 0 8 8 ................",
"................' _ _ E f y a w ........................S G S m > & & & ........................E L E L f s w f ................",
"................' ' ' _ k f f f ........................G S G S > & & & ........................E E E L f s s s ................",
"................_ ' _ _ k f a a ........................S G S m > & & & ........................E E E E f f s f ................",
"................_ _ _ ^ f a y a ........................G S G m ; & & & ........................E E E L f s w f ................",
"................E ^ E E q 0 0 0 ........................S G G S > & & & ........................E E E L w 0 0 0 ................",
"................E E E U q 8 8 8 ........................G S S m ; & & & ........................E E E L w 8 8 8 ................",
"................E E E H w 8 8 8 ........................S S G m > & & & ........................E E E L w 8 8 8 ................",
"................^ E ^ E w q q 0 ........................H G G S 5 & & ; ........................E E E U w q 0 0 ................",
"................_ _ ' E h y y y ........................E U U L 8 6 8 6 ........................E E E U f s y w ................",
"................_ ' _ _ h f f f ........................E E E L 0 8 8 8 ........................E E E U f f f f ................",
"................' _ ' _ z f f f ........................E E E L w 0 8 8 ........................E E E U f f y f ................",
"................_ _ ' ^ f w y y ........................E U U L 0 6 8 6 ........................E E E U f y s f ................",
"G S G S m z b Z Y E E L 5 = ; = ........................S S S m > = = = ........................E E E L w q q 8 8 8 8 8 x m h M ",
"S G S S M z b Z Y E Y L > = & = ........................A A A x > & & & ........................E E E L q 8 8 8 8 8 8 q x x h m ",
"G S G S m z m m Y E E H > & & & ........................A A A m > = & & ........................^ Y E L q 0 8 8 8 8 8 q z h M b ",
"A m Z Z h f f z I E Y L 2 & & & ........................A A A x > = = = ........................U Y Y L q 6 6 6 6 6 6 6 s h y h ",
"> > ; > ; > ; 3 m S S m ; & & & ........................S A A m 0 6 8 6 ........................S S A A - * = = + +   + + + + + ",
"& & & & & & & > m S m m > & & & ........................A A A m 0 0 8 8 ........................A S A A - & = #   o   o         ",
"& & & & & & & ; x A S m ; & & & ........................A A A m 0 8 8 8 ........................A A A x - * & &         o   o   ",
"& & & & & & & > m A M m > = = = ........................A A A m 0 8 8 8 ........................A A A x - & # # o o o       o   ",
"................m A A m 8 6 8 6 ........................A A A m w 0 8 8 ........................A A A l + +   + ................",
"................A A A m w 8 8 8 ........................A A A m 0 8 8 8 ........................A A A l +       ................",
"................A A A m 0 8 8 8 ........................A A A m 0 8 8 8 ........................A A M m +     o ................",
"................A A A m w 8 8 8 ........................A A A m w 0 8 8 ........................A A S x &     o ................",
"................A A A m 0 8 8 8 ........................A A A m q 8 8 8 ........................A A A l +       ................",
"................A A A m w 8 8 8 ........................A A A m q 8 8 8 ........................A A A l #   o   ................",
"................A A A m 0 8 8 8 ........................A A S m q 8 8 8 ........................A A A l +     X ................",
"................A A A m w 8 8 8 ........................A A A m q 8 8 8 ........................A A A l #   X   ................"
};
